<svg data-v-423bf9ae="" xmlns="http://www.w3.org/2000/svg" viewBox="0 0 195.3352595884576 60" class="font"><!----><!----><!----><g data-v-423bf9ae="" id="f4f34b80-298f-443d-934d-4460efc209a3" fill="white" transform="matrix(5.830903271297242,0,0,5.830903271297242,-6.530611171058652,-13.46938574621251)"><path d="M3.15 7.84L6.86 7.84L7.06 6.72L3.35 6.72L3.84 3.92L7.69 3.92L7.88 2.80L2.84 2.80L1.12 12.60L2.31 12.60ZM9.63 2.80L7.91 12.60L9.10 12.60L10.82 2.80ZM12.99 2.80L11.27 12.60L16.31 12.60L16.51 11.48L12.66 11.48L14.18 2.80ZM23.45 2.31L17.08 12.60L18.42 12.60L20.20 9.66L24.12 9.66L24.85 12.60L26.18 12.60ZM22.97 5.05L23.84 8.54L20.87 8.54ZM29.09 2.80L27.37 12.60L28.56 12.60L29.25 8.68L30.58 8.68L32.56 12.60L33.95 12.60L31.89 8.54C32.69 8.34 33.35 7.97 33.86 7.42C34.37 6.87 34.62 6.17 34.62 5.33C34.62 4.59 34.36 3.98 33.82 3.51C33.29 3.04 32.60 2.80 31.75 2.80ZM30.09 3.92L31.56 3.92C32.13 3.92 32.57 4.04 32.89 4.29C33.22 4.54 33.38 4.90 33.38 5.36C33.38 6.05 33.13 6.59 32.63 6.98C32.14 7.37 31.57 7.56 30.91 7.56L29.44 7.56Z"></path></g><!----><!----></svg>