<svg data-v-423bf9ae="" xmlns="http://www.w3.org/2000/svg" viewBox="0 0 1236.5909681619064 193" class="fontAboveSlogan"><!----><!----><!----><g data-v-423bf9ae="" id="e49b28c2-36d7-4a94-9a12-166224f594fb" fill="white" transform="matrix(13.480981269736683,0,0,13.480981269736683,352.27064540534616,-54.4053329954492)"><path d="M6.45 4.31L6.48 6.08Q6.48 6.12 6.41 6.13Q6.33 6.13 6.31 6.09L6.31 6.09Q6.22 5.32 5.77 4.92Q5.32 4.52 4.59 4.52L4.59 4.52L3.88 4.52Q3.28 4.52 3.06 4.69Q2.84 4.86 2.84 5.33L2.84 5.33L2.84 8.39L4.13 8.39Q4.89 8.39 5.24 8.13Q5.60 7.88 5.60 7.38L5.60 7.38Q5.60 7.35 5.68 7.35Q5.77 7.35 5.77 7.38L5.77 7.38L5.75 8.55Q5.75 8.97 5.77 9.18L5.77 9.18L5.78 9.88Q5.78 9.91 5.70 9.91Q5.61 9.91 5.61 9.88L5.61 9.88Q5.61 9.28 5.25 8.99Q4.89 8.71 4.09 8.71L4.09 8.71L2.84 8.71L2.84 11.75Q2.84 12.19 2.96 12.40Q3.08 12.60 3.42 12.68Q3.75 12.77 4.48 12.77L4.48 12.77Q4.51 12.77 4.51 12.85Q4.51 12.94 4.48 12.94L4.48 12.94Q3.91 12.94 3.58 12.92L3.58 12.92L2.27 12.91L1.29 12.92Q1.02 12.94 0.55 12.94L0.55 12.94Q0.52 12.94 0.52 12.85Q0.52 12.77 0.55 12.77L0.55 12.77Q1.06 12.77 1.31 12.70Q1.55 12.63 1.64 12.43Q1.72 12.22 1.72 11.80L1.72 11.80L1.72 5.32Q1.72 4.90 1.64 4.70Q1.55 4.51 1.32 4.43Q1.09 4.35 0.60 4.35L0.60 4.35Q0.56 4.35 0.56 4.27Q0.56 4.19 0.60 4.19L0.60 4.19L6.31 4.19Q6.45 4.19 6.45 4.31L6.45 4.31ZM10.09 11.80Q10.09 12.22 10.18 12.43Q10.26 12.63 10.49 12.70Q10.72 12.77 11.23 12.77L11.23 12.77Q11.26 12.77 11.26 12.85Q11.26 12.94 11.23 12.94L11.23 12.94Q10.78 12.94 10.53 12.92L10.53 12.92L9.52 12.91L8.54 12.92Q8.27 12.94 7.81 12.94L7.81 12.94Q7.78 12.94 7.78 12.85Q7.78 12.77 7.81 12.77L7.81 12.77Q8.32 12.77 8.55 12.70Q8.79 12.63 8.88 12.43Q8.96 12.22 8.96 11.80L8.96 11.80L8.96 5.32Q8.96 4.90 8.88 4.70Q8.79 4.51 8.55 4.43Q8.32 4.35 7.81 4.35L7.81 4.35Q7.78 4.35 7.78 4.27Q7.78 4.19 7.81 4.19L7.81 4.19L8.54 4.20Q9.16 4.23 9.52 4.23L9.52 4.23Q9.93 4.23 10.54 4.20L10.54 4.20L11.23 4.19Q11.26 4.19 11.26 4.27Q11.26 4.35 11.23 4.35L11.23 4.35Q10.74 4.35 10.50 4.44Q10.26 4.52 10.18 4.72Q10.09 4.93 10.09 5.35L10.09 5.35L10.09 11.80ZM14.59 5.33L14.59 11.75Q14.59 12.14 14.66 12.31Q14.74 12.49 14.95 12.55Q15.16 12.61 15.61 12.61L15.61 12.61L16.80 12.61Q17.68 12.61 18.26 12.09Q18.84 11.56 19.04 10.67L19.04 10.67Q19.04 10.63 19.12 10.63Q19.19 10.64 19.19 10.68L19.19 10.68Q19.07 11.91 19.07 12.73L19.07 12.73Q19.07 12.84 19.02 12.89Q18.97 12.94 18.86 12.94L18.86 12.94L12.33 12.94Q12.31 12.94 12.31 12.85Q12.31 12.77 12.33 12.77L12.33 12.77Q12.84 12.77 13.07 12.70Q13.30 12.63 13.38 12.43Q13.47 12.22 13.47 11.80L13.47 11.80L13.47 5.32Q13.47 4.90 13.38 4.70Q13.30 4.51 13.07 4.43Q12.84 4.35 12.33 4.35L12.33 4.35Q12.31 4.35 12.31 4.27Q12.31 4.19 12.33 4.19L12.33 4.19L13.03 4.20Q13.65 4.23 14.03 4.23L14.03 4.23Q14.41 4.23 15.02 4.20L15.02 4.20L15.72 4.19Q15.75 4.19 15.75 4.27Q15.75 4.35 15.72 4.35L15.72 4.35Q15.23 4.35 14.99 4.43Q14.76 4.51 14.67 4.71Q14.59 4.91 14.59 5.33L14.59 5.33ZM29.26 12.77Q29.32 12.77 29.32 12.85Q29.32 12.94 29.26 12.94L29.26 12.94Q28.99 12.94 28.41 12.91L28.41 12.91Q27.85 12.88 27.58 12.88L27.58 12.88Q27.26 12.88 26.78 12.91L26.78 12.91Q26.31 12.94 26.07 12.94L26.07 12.94Q26.01 12.94 26.01 12.85Q26.01 12.77 26.07 12.77L26.07 12.77Q26.54 12.77 26.75 12.68Q26.96 12.59 26.96 12.35L26.96 12.35Q26.96 12.11 26.75 11.69L26.75 11.69L25.19 8.44L22.61 8.44L21.46 11.09Q21.27 11.55 21.27 11.86L21.27 11.86Q21.27 12.77 22.62 12.77L22.62 12.77Q22.69 12.77 22.69 12.85Q22.69 12.94 22.62 12.94L22.62 12.94Q22.37 12.94 21.90 12.91L21.90 12.91Q21.36 12.88 20.97 12.88L20.97 12.88Q20.61 12.88 20.10 12.91L20.10 12.91Q19.66 12.94 19.38 12.94L19.38 12.94Q19.32 12.94 19.32 12.85Q19.32 12.77 19.38 12.77L19.38 12.77Q19.77 12.77 20.04 12.61Q20.31 12.46 20.57 12.08Q20.82 11.70 21.14 10.96L21.14 10.96L24.12 4.09Q24.14 4.05 24.22 4.04Q24.30 4.03 24.32 4.09L24.32 4.09L27.69 11.02Q28.17 12.04 28.50 12.40Q28.84 12.77 29.26 12.77L29.26 12.77ZM23.83 5.60L22.74 8.12L25.03 8.12L23.83 5.60ZM38.95 12.77Q38.98 12.77 38.98 12.85Q38.98 12.94 38.95 12.94L38.95 12.94L36.92 12.94Q36.58 12.94 35.65 11.74Q34.72 10.54 33.43 8.46L33.43 8.46Q33.11 8.53 32.82 8.53L32.82 8.53Q32.55 8.53 32.13 8.50L32.13 8.50L32.13 11.80Q32.13 12.22 32.21 12.43Q32.30 12.63 32.53 12.70Q32.76 12.77 33.26 12.77L33.26 12.77Q33.31 12.77 33.31 12.85Q33.31 12.94 33.26 12.94L33.26 12.94Q32.83 12.94 32.58 12.92L32.58 12.92L31.57 12.91L30.59 12.92Q30.32 12.94 29.88 12.94L29.88 12.94Q29.83 12.94 29.83 12.85Q29.83 12.77 29.88 12.77L29.88 12.77Q30.38 12.77 30.62 12.70Q30.86 12.63 30.94 12.43Q31.02 12.22 31.02 11.80L31.02 11.80L31.02 5.32Q31.02 4.90 30.94 4.70Q30.86 4.51 30.63 4.43Q30.39 4.35 29.89 4.35L29.89 4.35Q29.86 4.35 29.86 4.27Q29.86 4.19 29.89 4.19L29.89 4.19L30.59 4.20Q31.21 4.23 31.57 4.23L31.57 4.23Q31.82 4.23 32.05 4.21Q32.27 4.20 32.44 4.19L32.44 4.19Q32.90 4.14 33.31 4.14L33.31 4.14Q34.50 4.14 35.14 4.61Q35.78 5.08 35.78 5.91L35.78 5.91Q35.78 6.57 35.39 7.15Q35 7.74 34.37 8.11L34.37 8.11Q35.55 9.88 36.34 10.88Q37.13 11.89 37.74 12.33Q38.36 12.77 38.95 12.77L38.95 12.77ZM32.13 8.13Q32.66 8.19 32.96 8.19L32.96 8.19Q33.85 8.19 34.24 7.79Q34.62 7.39 34.62 6.41L34.62 6.41Q34.62 5.31 34.20 4.84Q33.78 4.38 33.04 4.38L33.04 4.38Q32.68 4.38 32.49 4.45Q32.30 4.52 32.21 4.72Q32.13 4.93 32.13 5.35L32.13 5.35L32.13 8.13Z"></path></g><!----><!----><g data-v-423bf9ae="" id="e3ba746f-3349-4be8-9b1c-85aa9f600af9" fill="white" transform="matrix(5.681818469168412,0,0,5.681818469168412,-1.590897957608604,114.24999717690724)"><path d="M0.28 3.71L0.28 3.71Q0.28 3.51 0.66 3.51L0.66 3.51Q0.74 3.51 1.20 3.54Q1.65 3.56 2.20 3.56L2.20 3.56Q2.59 3.56 2.98 3.54Q3.37 3.51 3.40 3.51L3.40 3.51Q3.53 3.51 3.56 3.55Q3.60 3.58 3.60 3.68L3.60 3.68Q3.60 3.77 3.30 3.92Q3.00 4.07 3.00 4.34L3.00 4.34Q3.00 4.47 3.05 4.65Q3.11 4.83 3.28 5.22Q3.44 5.61 3.63 6.03Q3.82 6.45 4.21 7.33Q4.61 8.20 4.98 9.07L4.98 9.07Q5.08 9.30 5.27 9.74Q5.46 10.18 5.58 10.46Q5.70 10.74 5.84 11.05Q5.98 11.37 6.07 11.52Q6.16 11.68 6.20 11.68L6.20 11.68Q6.26 11.68 6.65 10.81Q7.04 9.94 7.35 9.17L7.35 9.17Q7.41 9.04 7.48 8.89Q7.56 8.74 7.59 8.63Q7.63 8.53 7.63 8.41L7.63 8.41Q7.63 8.25 6.79 6.36Q5.95 4.48 5.71 4.21L5.71 4.21Q5.66 4.14 5.60 4.10Q5.54 4.06 5.50 4.02Q5.45 3.99 5.41 3.97Q5.38 3.95 5.32 3.94Q5.26 3.93 5.24 3.93Q5.22 3.93 5.16 3.93Q5.10 3.92 5.08 3.92L5.08 3.92Q4.69 3.88 4.61 3.84Q4.52 3.81 4.52 3.70L4.52 3.70Q4.52 3.50 4.93 3.50L4.93 3.50Q5.01 3.50 5.47 3.53Q5.94 3.56 6.47 3.56L6.47 3.56Q6.50 3.56 6.85 3.53Q7.20 3.50 7.39 3.50L7.39 3.50Q7.81 3.50 7.81 3.61L7.81 3.61Q7.81 3.70 7.66 3.78Q7.50 3.86 7.36 4.00Q7.21 4.13 7.21 4.33L7.21 4.33Q7.21 4.59 7.64 5.57L7.64 5.57Q7.67 5.63 7.83 6.03Q7.99 6.44 8.12 6.71Q8.25 6.99 8.30 6.99L8.30 6.99Q8.41 6.99 8.86 5.76Q9.31 4.54 9.31 4.31L9.31 4.31Q9.31 4.06 9.10 3.96Q8.89 3.85 8.68 3.80Q8.47 3.75 8.47 3.64L8.47 3.64Q8.47 3.49 8.78 3.49L8.78 3.49Q8.86 3.49 9.20 3.50Q9.53 3.51 9.67 3.51L9.67 3.51L9.91 3.51Q10.11 3.51 10.65 3.47L10.65 3.47L10.78 3.47Q10.96 3.47 10.96 3.61Q10.96 3.75 10.70 3.84Q10.43 3.92 10.33 4.02L10.33 4.02Q10.11 4.24 9.94 4.66L9.94 4.66Q9.65 5.38 9.24 6.33L9.24 6.33Q8.82 7.31 8.75 7.50Q8.68 7.70 8.68 7.85L8.68 7.85Q8.68 7.97 9.53 9.87Q10.39 11.77 10.54 11.77L10.54 11.77Q10.71 11.77 12.17 8.24Q13.64 4.70 13.64 4.35L13.64 4.35Q13.64 4.13 13.47 4.01Q13.31 3.89 13.12 3.87Q12.92 3.85 12.76 3.80Q12.60 3.75 12.60 3.64L12.60 3.64Q12.60 3.54 12.64 3.52Q12.68 3.50 12.87 3.50L12.87 3.50Q12.91 3.50 13.19 3.51Q13.47 3.51 13.75 3.51L13.75 3.51Q14 3.51 14.31 3.50Q14.63 3.49 14.99 3.49L14.99 3.49Q15.27 3.49 15.27 3.68L15.27 3.68Q15.27 3.78 15.20 3.84Q15.12 3.89 14.97 3.98Q14.81 4.06 14.70 4.17L14.70 4.17Q14.63 4.24 14.58 4.31Q14.53 4.38 14.48 4.49Q14.42 4.59 14.38 4.66Q14.35 4.73 14.27 4.91Q14.20 5.08 14.15 5.18L14.15 5.18Q13.08 7.59 11.75 10.58L11.75 10.58Q10.68 13.01 10.49 13.41Q10.29 13.82 10.18 13.82L10.18 13.82Q10.11 13.82 10.01 13.64Q9.91 13.47 9.74 13.05Q9.56 12.64 9.53 12.57L9.53 12.57Q9.39 12.26 9.16 11.72Q8.93 11.17 8.77 10.79Q8.61 10.42 8.44 10.02Q8.27 9.63 8.16 9.43Q8.05 9.23 8.01 9.23L8.01 9.23Q7.87 9.23 7.06 11.16Q6.26 13.09 6.20 13.31L6.20 13.31Q6.19 13.37 6.17 13.43Q6.15 13.48 6.13 13.52Q6.12 13.57 6.10 13.61Q6.09 13.65 6.08 13.68Q6.06 13.71 6.05 13.73Q6.05 13.76 6.03 13.78Q6.02 13.80 6.01 13.82Q5.99 13.83 5.98 13.84Q5.96 13.85 5.95 13.85Q5.94 13.86 5.91 13.86L5.91 13.86Q5.78 13.86 5.60 13.46Q5.42 13.06 4.94 11.89Q4.47 10.72 3.98 9.65L3.98 9.65Q3.16 7.87 2.25 5.63L2.25 5.63Q1.99 4.96 1.68 4.57Q1.37 4.19 1.13 4.09Q0.90 3.99 0.70 3.98Q0.50 3.96 0.39 3.92Q0.28 3.88 0.28 3.71ZM22.82 3.71L22.82 3.71Q22.82 3.50 23.21 3.50L23.21 3.50Q23.35 3.50 23.86 3.53Q24.36 3.56 24.79 3.56L24.79 3.56Q25.06 3.56 25.30 3.54Q25.55 3.53 26.03 3.53L26.03 3.53Q26.40 3.53 26.40 3.72L26.40 3.72Q26.40 3.84 25.76 4.10L25.76 4.10Q25.31 4.28 25.31 5.71L25.31 5.71Q25.31 7.60 25.29 9.05Q25.27 10.50 25.27 10.89L25.27 10.89Q25.27 12.07 25.62 12.59L25.62 12.59Q25.93 13.02 26.29 13.02L26.29 13.02Q26.32 13.02 26.43 13.03Q26.54 13.03 26.57 13.03L26.57 13.03Q26.67 13.03 26.77 13.08Q26.87 13.13 26.87 13.19L26.87 13.19Q26.87 13.34 26.79 13.39Q26.71 13.44 26.52 13.44L26.52 13.44Q26.10 13.44 25.74 13.41Q25.38 13.38 25.19 13.38L25.19 13.38Q24.79 13.38 24.33 13.42Q23.87 13.45 23.65 13.45L23.65 13.45Q23.02 13.45 23.02 13.24L23.02 13.24Q23.02 13.12 23.15 13.07Q23.28 13.02 23.45 13.00Q23.62 12.98 23.80 12.82Q23.98 12.66 24.05 12.35L24.05 12.35Q24.08 12.25 24.14 10.76Q24.21 9.27 24.21 8.61L24.21 8.61L24.21 7.81Q24.21 7.63 24.21 7.12Q24.22 6.61 24.22 6.30L24.22 6.30L24.22 5.66Q24.22 5.04 24.16 4.63L24.16 4.63Q24.12 4.30 23.79 4.12Q23.46 3.93 23.11 3.92L23.11 3.92Q22.82 3.91 22.82 3.71ZM34.41 3.77L34.41 3.77Q34.41 3.68 34.51 3.60Q34.61 3.53 34.76 3.53L34.76 3.53Q34.85 3.53 35.04 3.54Q35.24 3.54 35.29 3.54L35.29 3.54Q35.50 3.54 35.69 3.53Q35.87 3.51 35.98 3.51L35.98 3.51Q36.11 3.51 36.27 3.59Q36.44 3.67 36.47 3.75L36.47 3.75Q36.50 3.79 36.62 3.94Q36.75 4.09 36.96 4.33Q37.17 4.56 37.34 4.79L37.34 4.79Q39.24 7.27 42.43 10.77L42.43 10.77Q42.52 10.86 42.64 10.99Q42.76 11.12 42.80 11.18Q42.85 11.24 42.91 11.30Q42.97 11.35 43.00 11.38Q43.04 11.40 43.06 11.40L43.06 11.40Q43.20 11.40 43.20 10.53L43.20 10.53L43.20 8.89Q43.20 7.95 43.20 7.31Q43.19 6.66 43.18 6.38Q43.18 6.09 43.18 6.02L43.18 6.02L43.18 5.92Q43.18 5.45 43.11 5.11Q43.05 4.77 42.97 4.59Q42.88 4.41 42.72 4.28Q42.56 4.16 42.45 4.12Q42.34 4.09 42.13 4.05Q41.92 4.00 41.83 3.98L41.83 3.98Q41.55 3.89 41.55 3.74L41.55 3.74Q41.55 3.53 41.82 3.53L41.82 3.53Q41.90 3.53 42.49 3.54Q43.08 3.54 43.15 3.54L43.15 3.54Q43.48 3.54 43.90 3.53Q44.31 3.51 44.41 3.51L44.41 3.51Q44.65 3.51 44.74 3.56Q44.83 3.61 44.83 3.75L44.83 3.75Q44.83 3.81 44.75 3.86Q44.67 3.91 44.59 3.94Q44.51 3.98 44.42 4.00L44.42 4.00L44.34 4.03Q43.88 4.28 43.88 5.61L43.88 5.61L43.88 6.15Q43.88 7.21 43.80 9.83Q43.72 12.46 43.72 13.08L43.72 13.08L43.72 13.36Q43.72 13.68 43.53 13.68L43.53 13.68Q43.40 13.68 43.30 13.58L43.30 13.58Q38.65 8.19 37.75 7.17Q36.85 6.16 36.75 6.16L36.75 6.16Q36.61 6.16 36.61 7.11L36.61 7.11Q36.61 8.44 36.55 9.97Q36.50 11.51 36.50 11.65L36.50 11.65Q36.50 12.28 36.71 12.61Q36.93 12.94 37.18 12.98Q37.44 13.02 37.65 13.07Q37.87 13.12 37.87 13.26L37.87 13.26Q37.87 13.41 37.82 13.45Q37.77 13.50 37.65 13.50L37.65 13.50Q37.55 13.50 37.20 13.48Q36.86 13.47 36.15 13.47L36.15 13.47Q36.02 13.47 35.63 13.48Q35.24 13.50 34.96 13.50L34.96 13.50Q34.65 13.50 34.65 13.27L34.65 13.27Q34.65 13.15 34.83 13.11Q35.01 13.08 35.28 12.89Q35.55 12.71 35.69 12.21L35.69 12.21Q35.77 11.89 35.90 9.60Q36.02 7.32 36.02 6.45L36.02 6.45Q36.02 5.25 35.69 4.65Q35.35 4.06 34.59 3.98L34.59 3.98Q34.41 3.96 34.41 3.77ZM52.58 3.64L52.58 3.64Q52.58 3.51 52.70 3.49Q52.82 3.47 53.30 3.47L53.30 3.47L54.52 3.47Q54.87 3.47 55.80 3.44Q56.74 3.42 57.25 3.42L57.25 3.42Q58.21 3.42 59.18 3.71Q60.14 4.00 60.96 4.56Q61.77 5.11 62.27 6.00Q62.78 6.89 62.78 7.98L62.78 7.98Q62.78 8.96 62.64 9.68Q62.51 10.40 62.20 10.93Q61.89 11.45 61.59 11.78Q61.28 12.11 60.75 12.56L60.75 12.56Q60.33 12.89 59.53 13.19Q58.73 13.48 57.89 13.48L57.89 13.48Q57.81 13.48 56.46 13.45Q55.12 13.41 54.53 13.41L54.53 13.41Q54.04 13.41 53.62 13.45Q53.20 13.48 53.13 13.48L53.13 13.48Q52.79 13.48 52.79 13.30L52.79 13.30Q52.79 13.19 52.84 13.14Q52.89 13.09 53.05 13.05Q53.21 13.01 53.28 12.98L53.28 12.98Q53.51 12.88 53.70 12.61Q53.89 12.33 53.89 12.07L53.89 12.07Q53.89 11.28 53.89 10.07Q53.90 8.85 53.90 8.27L53.90 8.27Q53.90 7.77 53.89 6.70Q53.89 5.63 53.89 4.72L53.89 4.72Q53.89 4.48 53.66 4.23Q53.42 3.99 53.14 3.98L53.14 3.98Q52.95 3.96 52.86 3.95Q52.77 3.93 52.68 3.86Q52.58 3.78 52.58 3.64ZM55.06 11.47L55.06 11.47Q55.06 11.73 55.07 11.90Q55.08 12.07 55.13 12.21Q55.17 12.35 55.20 12.40Q55.23 12.46 55.37 12.53Q55.51 12.60 55.59 12.62Q55.66 12.64 55.92 12.71Q56.17 12.78 56.34 12.82L56.34 12.82Q56.83 12.96 57.36 12.96L57.36 12.96L57.64 12.96Q58.59 12.96 59.26 12.69Q59.93 12.42 60.55 11.83L60.55 11.83Q61.59 10.84 61.59 8.61L61.59 8.61Q61.59 7.49 61.15 6.58Q60.70 5.67 59.99 5.13Q59.28 4.59 58.45 4.30Q57.62 4.02 56.78 4.02L56.78 4.02Q56.41 4.02 56.23 4.02Q56.06 4.02 55.83 4.05Q55.59 4.09 55.52 4.11Q55.44 4.13 55.33 4.25Q55.22 4.37 55.20 4.45Q55.17 4.54 55.14 4.78Q55.10 5.03 55.10 5.21Q55.10 5.39 55.10 5.80L55.10 5.80Q55.10 6.10 55.09 7.24Q55.08 8.39 55.08 8.48L55.08 8.48Q55.08 9.32 55.07 10.30Q55.06 11.28 55.06 11.47ZM71.22 10.82L71.22 10.82Q71.22 10.53 71.41 10.53L71.41 10.53Q71.60 10.53 71.64 10.67L71.64 10.67Q71.78 11.00 71.90 11.25Q72.02 11.49 72.28 11.85Q72.55 12.21 72.86 12.44Q73.16 12.67 73.65 12.84Q74.13 13.01 74.70 13.01L74.70 13.01Q75.75 13.01 76.39 12.45Q77.03 11.90 77.03 11.00L77.03 11.00Q77.03 10.35 76.59 9.90Q76.16 9.46 75.60 9.27Q75.04 9.09 74.18 8.77Q73.32 8.46 72.77 8.13L72.77 8.13Q71.50 7.38 71.50 6.08L71.50 6.08Q71.50 4.83 72.40 4.08Q73.30 3.33 74.75 3.33L74.75 3.33Q75.28 3.33 76.01 3.56Q76.75 3.79 76.76 3.79L76.76 3.79Q76.80 3.79 76.92 3.74Q77.03 3.68 77.08 3.68L77.08 3.68Q77.27 3.68 77.29 3.79L77.29 3.79Q77.59 5.49 77.59 5.70L77.59 5.70Q77.59 6.09 77.39 6.09L77.39 6.09Q77.27 6.09 77.20 5.89L77.20 5.89Q77.03 5.49 76.87 5.24Q76.71 4.98 76.64 4.91Q76.57 4.84 76.27 4.58L76.27 4.58Q75.52 3.91 74.44 3.91L74.44 3.91Q73.57 3.91 72.98 4.33Q72.39 4.75 72.39 5.46L72.39 5.46Q72.39 6.09 72.74 6.50Q73.08 6.90 73.65 7.13Q74.23 7.35 74.86 7.55Q75.49 7.74 76.19 8.09Q76.90 8.44 77.36 8.93L77.36 8.93Q77.92 9.53 77.92 10.43L77.92 10.43Q77.92 11.90 76.99 12.76Q76.05 13.62 74.66 13.62L74.66 13.62Q73.70 13.62 73.11 13.52Q72.52 13.41 71.90 13.09L71.90 13.09Q71.72 12.98 71.47 12.00Q71.22 11.02 71.22 10.82ZM96.33 8.69L96.33 8.69Q96.33 6.34 97.75 4.84Q99.16 3.33 101.75 3.33L101.75 3.33Q102.96 3.33 103.92 3.68Q104.89 4.03 105.45 4.54Q106.01 5.05 106.39 5.71Q106.76 6.37 106.90 6.92Q107.04 7.48 107.04 7.95L107.04 7.95Q107.04 9.86 106.30 11.16Q105.56 12.47 104.35 13.07Q103.14 13.66 101.56 13.66L101.56 13.66Q99.89 13.66 98.68 12.94Q97.47 12.21 96.90 11.10Q96.33 10.00 96.33 8.69ZM97.57 7.98L97.57 7.98Q97.57 8.54 97.72 9.19Q97.87 9.84 98.22 10.54Q98.57 11.23 99.07 11.78Q99.57 12.33 100.33 12.69Q101.09 13.05 102.00 13.05L102.00 13.05Q102.48 13.05 103.00 12.90Q103.53 12.75 104.05 12.45Q104.57 12.14 104.97 11.70Q105.38 11.26 105.64 10.62Q105.90 9.98 105.90 9.24L105.90 9.24Q105.90 6.71 104.57 5.30Q103.24 3.89 101.28 3.89L101.28 3.89Q99.74 3.89 98.65 4.93Q97.57 5.96 97.57 7.98ZM114.94 3.68L114.94 3.68Q114.94 3.64 114.96 3.60Q114.98 3.56 115.07 3.50Q115.16 3.44 115.30 3.44L115.30 3.44L115.68 3.44Q116.02 3.44 116.77 3.49Q117.52 3.53 118.72 3.53L118.72 3.53Q119.71 3.53 120.48 3.49Q121.25 3.46 121.90 3.46L121.90 3.46Q122.14 3.46 122.14 3.79L122.14 3.79Q122.14 3.92 122.11 4.11Q122.08 4.30 122.02 4.61Q121.97 4.93 121.94 5.22L121.94 5.22Q121.91 5.50 121.73 5.50L121.73 5.50Q121.53 5.50 121.53 5.22L121.53 5.22Q121.53 4.30 120.89 4.26L120.89 4.26Q118.78 4.09 118.37 4.09L118.37 4.09Q117.74 4.09 117.59 4.24Q117.45 4.40 117.43 4.87L117.43 4.87Q117.43 4.94 117.43 4.98L117.43 4.98Q117.39 5.74 117.39 7.32L117.39 7.32Q117.39 8.01 117.64 8.02L117.64 8.02Q117.71 8.02 117.83 8.03Q117.95 8.04 117.99 8.04L117.99 8.04Q118.09 8.04 118.29 8.03Q118.48 8.02 118.59 8.02L118.59 8.02L119.03 8.02Q119.87 8.02 120.14 7.97Q120.41 7.92 120.64 7.77L120.64 7.77Q120.76 7.69 120.83 7.57Q120.90 7.46 120.93 7.31Q120.96 7.15 121.00 7.08Q121.04 7.01 121.17 7.01Q121.30 7.01 121.32 7.06Q121.35 7.10 121.35 7.24L121.35 7.24Q121.35 7.34 121.29 7.73Q121.23 8.12 121.23 8.40L121.23 8.40Q121.23 8.67 121.27 9.05Q121.32 9.44 121.32 9.55L121.32 9.55Q121.32 9.77 121.27 9.83Q121.23 9.90 121.13 9.90L121.13 9.90Q120.89 9.90 120.83 9.55L120.83 9.55Q120.83 9.52 120.82 9.42Q120.81 9.32 120.80 9.28Q120.79 9.24 120.76 9.16Q120.74 9.09 120.71 9.04Q120.68 9.00 120.64 8.95Q120.60 8.90 120.53 8.88L120.53 8.88Q120.33 8.79 119.83 8.74Q119.32 8.68 119.17 8.68L119.17 8.68L117.95 8.68Q117.38 8.68 117.38 8.95L117.38 8.95Q117.38 9.35 117.36 9.96Q117.35 10.57 117.35 10.96L117.35 10.96Q117.35 11.06 117.34 11.25Q117.33 11.44 117.33 11.52L117.33 11.52Q117.33 11.80 117.39 12.08Q117.45 12.36 117.72 12.67Q117.99 12.98 118.45 12.98L118.45 12.98Q118.87 12.98 118.87 13.23L118.87 13.23Q118.87 13.27 118.85 13.33Q118.82 13.38 118.71 13.44Q118.61 13.50 118.44 13.50L118.44 13.50Q118.22 13.50 117.73 13.44Q117.25 13.38 117.08 13.38L117.08 13.38Q116.69 13.38 116.21 13.43Q115.72 13.47 115.39 13.47L115.39 13.47Q115.11 13.47 115.11 13.31L115.11 13.31Q115.11 13.13 115.17 13.09Q115.23 13.05 115.71 12.88L115.71 12.88Q116.07 12.75 116.16 12.13Q116.24 11.51 116.26 9.60L116.26 9.60Q116.26 8.86 116.26 8.44L116.26 8.44Q116.26 8.06 116.28 7.26Q116.30 6.45 116.30 6.01L116.30 6.01L116.30 5.19Q116.30 4.27 115.64 3.96L115.64 3.96Q115.54 3.92 115.40 3.90Q115.26 3.88 115.17 3.88Q115.08 3.88 115.01 3.83Q114.94 3.78 114.94 3.68ZM139.68 5.32L139.68 5.32Q139.68 4.76 139.82 3.88L139.82 3.88Q139.82 3.85 139.82 3.78Q139.83 3.71 139.84 3.69Q139.85 3.67 139.85 3.62Q139.86 3.57 139.87 3.55Q139.89 3.53 139.91 3.49Q139.93 3.46 139.96 3.44Q139.99 3.43 140.03 3.42Q140.07 3.40 140.13 3.39Q140.18 3.39 140.25 3.39L140.25 3.39Q140.48 3.39 141.44 3.44Q142.39 3.50 144.20 3.50L144.20 3.50Q147.28 3.50 148.51 3.43L148.51 3.43Q148.53 3.43 148.56 3.42Q148.60 3.42 148.61 3.42L148.61 3.42Q148.76 3.42 148.82 3.50Q148.88 3.58 148.88 3.65L148.88 3.65Q148.88 3.75 148.92 4.24Q148.96 4.73 148.96 4.79L148.96 4.79Q148.96 5.14 148.92 5.23Q148.88 5.32 148.74 5.32L148.74 5.32Q148.62 5.32 148.58 5.15L148.58 5.15Q148.47 4.75 148.39 4.60Q148.30 4.45 148.02 4.34Q147.74 4.23 147.17 4.23L147.17 4.23L145.35 4.23Q145.01 4.23 144.94 4.36Q144.86 4.49 144.86 5.12L144.86 5.12L144.86 5.81Q144.86 7.69 144.84 9.11Q144.82 10.54 144.82 10.93L144.82 10.93Q144.82 11.13 144.81 11.43Q144.80 11.73 144.80 11.84L144.80 11.84Q144.80 12.45 145.00 12.64L145.00 12.64Q145.18 12.81 145.40 12.90Q145.63 12.99 145.79 13.01Q145.95 13.02 146.06 13.08Q146.17 13.13 146.17 13.26L146.17 13.26Q146.17 13.41 146.10 13.45Q146.03 13.50 145.84 13.50L145.84 13.50Q145.67 13.50 145.10 13.44Q144.52 13.38 144.28 13.38L144.28 13.38Q144.12 13.38 143.60 13.43Q143.09 13.48 142.86 13.48L142.86 13.48Q142.34 13.48 142.34 13.26L142.34 13.26Q142.34 13.12 142.42 13.07Q142.51 13.02 142.75 12.98Q143.00 12.95 143.07 12.94L143.07 12.94Q143.54 12.82 143.60 12.38L143.60 12.38Q143.74 11.14 143.74 7.08L143.74 7.08L143.72 4.58Q143.72 4.31 143.57 4.25Q143.42 4.19 142.66 4.19L142.66 4.19Q141.68 4.19 141.18 4.24Q140.69 4.30 140.60 4.35Q140.52 4.40 140.41 4.54L140.41 4.54Q140.28 4.70 140.20 4.91Q140.13 5.11 140.10 5.24Q140.08 5.38 140.02 5.47Q139.96 5.56 139.83 5.56L139.83 5.56Q139.68 5.56 139.68 5.32ZM156.52 3.70L156.52 3.70Q156.52 3.47 156.93 3.47L156.93 3.47L159.25 3.47Q159.57 3.47 159.99 3.45Q160.41 3.43 160.65 3.43L160.65 3.43Q161.91 3.43 162.81 4.07Q163.70 4.70 163.70 5.78L163.70 5.78Q163.70 6.50 163.43 7.03Q163.16 7.57 162.83 7.81Q162.50 8.05 162.23 8.22Q161.95 8.40 161.95 8.46L161.95 8.46Q161.95 8.62 163.13 10.27Q164.30 11.91 164.74 12.38L164.74 12.38Q165.27 13.03 166.03 13.03L166.03 13.03Q166.22 13.03 166.22 13.20L166.22 13.20Q166.22 13.41 166.05 13.48Q165.89 13.55 165.19 13.55L165.19 13.55Q164.53 13.55 163.98 13.23L163.98 13.23Q163.28 12.82 161.62 10.09L161.62 10.09Q161.52 9.94 161.48 9.87L161.48 9.87Q160.80 8.78 160.44 8.78L160.44 8.78L160.15 8.78L159.29 8.78Q159.12 8.78 159.09 8.92Q159.05 9.06 159.05 9.77L159.05 9.77Q159.05 10.44 159.05 10.88Q159.05 11.31 159.06 11.43Q159.07 11.55 159.07 11.63Q159.07 11.70 159.07 11.75L159.07 11.75Q159.07 12.32 159.33 12.63Q159.60 12.95 159.93 13.00Q160.26 13.05 160.52 13.11Q160.79 13.17 160.79 13.31L160.79 13.31Q160.79 13.54 160.54 13.54L160.54 13.54Q160.52 13.54 159.57 13.49Q158.62 13.44 158.54 13.44L158.54 13.44Q158.13 13.44 157.57 13.47Q157.01 13.50 157.00 13.50L157.00 13.50Q156.70 13.50 156.70 13.27L156.70 13.27Q156.70 13.12 156.88 13.05Q157.07 12.99 157.29 12.96Q157.51 12.94 157.70 12.66Q157.88 12.38 157.88 11.86L157.88 11.86Q157.88 11.49 157.89 9.90Q157.89 8.30 157.89 7.45L157.89 7.45Q157.89 6.58 157.89 5.86Q157.88 5.14 157.88 5.08L157.88 5.08Q157.88 4.56 157.67 4.29Q157.46 4.02 157.20 3.98Q156.94 3.95 156.73 3.89Q156.52 3.84 156.52 3.70ZM159.05 5.54L159.05 5.94Q159.05 7.38 159.07 7.72Q159.08 8.06 159.17 8.12L159.17 8.12Q159.38 8.25 159.77 8.25L159.77 8.25L159.91 8.25L160.31 8.25Q161.50 8.25 162.02 7.70Q162.53 7.15 162.53 6.30L162.53 6.30Q162.53 5.43 161.85 4.72Q161.17 4.00 159.80 4.00L159.80 4.00Q159.28 4.00 159.17 4.28Q159.05 4.55 159.05 5.54L159.05 5.54ZM173.57 13.33L173.57 13.33Q173.57 13.13 173.78 13.06L173.78 13.06Q174.23 12.89 174.57 12.31Q174.90 11.73 176.23 8.83L176.23 8.83Q177.60 5.87 178.65 3.63L178.65 3.63Q178.75 3.42 178.83 3.36Q178.91 3.30 179.07 3.30L179.07 3.30Q179.20 3.30 179.24 3.36Q179.28 3.42 179.42 3.82L179.42 3.82Q179.51 4.06 179.57 4.23Q179.63 4.40 179.77 4.77Q179.91 5.15 180.08 5.56L180.08 5.56Q180.53 6.66 181.63 9.22Q182.73 11.77 182.83 11.98L182.83 11.98Q183.06 12.46 183.36 12.71Q183.65 12.95 183.87 12.97Q184.09 12.99 184.23 13.04Q184.38 13.09 184.38 13.26L184.38 13.26Q184.38 13.47 184.00 13.47L184.00 13.47Q183.85 13.47 183.40 13.43Q182.95 13.38 182.74 13.38L182.74 13.38Q182.48 13.38 182.06 13.41Q181.64 13.44 181.44 13.44L181.44 13.44Q181.01 13.44 180.89 13.40Q180.77 13.37 180.77 13.24L180.77 13.24Q180.77 13.15 180.88 13.08Q180.99 13.02 181.12 13.00Q181.24 12.98 181.36 12.87Q181.47 12.77 181.47 12.59L181.47 12.59Q181.47 12.28 181.12 11.33Q180.77 10.37 180.53 9.93L180.53 9.93Q180.40 9.69 179.96 9.69L179.96 9.69Q179.89 9.69 179.34 9.70Q178.79 9.72 178.26 9.72L178.26 9.72L177.52 9.72Q176.89 9.72 176.73 9.79Q176.57 9.86 176.44 10.12L176.44 10.12Q176.36 10.30 176.16 10.70Q175.97 11.10 175.90 11.26Q175.83 11.41 175.72 11.65Q175.62 11.90 175.58 12.05Q175.55 12.19 175.55 12.31L175.55 12.31Q175.55 12.63 175.71 12.80Q175.87 12.96 176.06 12.98Q176.26 13.01 176.42 13.06Q176.58 13.12 176.58 13.26L176.58 13.26Q176.58 13.36 176.54 13.40Q176.50 13.45 176.34 13.45L176.34 13.45Q176.26 13.45 175.86 13.45Q175.46 13.44 175.18 13.44L175.18 13.44Q174.87 13.44 174.49 13.47Q174.10 13.50 173.98 13.50L173.98 13.50Q173.57 13.50 173.57 13.33ZM177.09 8.71L177.09 8.71Q177.09 8.89 177.21 8.93Q177.34 8.97 177.80 8.97L177.80 8.97L178.23 8.97L179.56 8.96Q180.11 8.96 180.11 8.74L180.11 8.74Q180.11 8.55 179.42 7.01Q178.74 5.46 178.56 5.46L178.56 5.46Q178.43 5.46 177.76 7.01Q177.09 8.55 177.09 8.71ZM191.94 3.64L191.94 3.64Q191.94 3.51 192.06 3.49Q192.18 3.47 192.65 3.47L192.65 3.47L193.87 3.47Q194.22 3.47 195.16 3.44Q196.10 3.42 196.60 3.42L196.60 3.42Q197.57 3.42 198.53 3.71Q199.50 4.00 200.31 4.56Q201.12 5.11 201.63 6.00Q202.13 6.89 202.13 7.98L202.13 7.98Q202.13 8.96 202.00 9.68Q201.87 10.40 201.56 10.93Q201.25 11.45 200.94 11.78Q200.63 12.11 200.10 12.56L200.10 12.56Q199.68 12.89 198.88 13.19Q198.09 13.48 197.25 13.48L197.25 13.48Q197.16 13.48 195.82 13.45Q194.47 13.41 193.89 13.41L193.89 13.41Q193.40 13.41 192.98 13.45Q192.56 13.48 192.49 13.48L192.49 13.48Q192.15 13.48 192.15 13.30L192.15 13.30Q192.15 13.19 192.20 13.14Q192.25 13.09 192.41 13.05Q192.57 13.01 192.64 12.98L192.64 12.98Q192.86 12.88 193.05 12.61Q193.24 12.33 193.24 12.07L193.24 12.07Q193.24 11.28 193.25 10.07Q193.26 8.85 193.26 8.27L193.26 8.27Q193.26 7.77 193.25 6.70Q193.24 5.63 193.24 4.72L193.24 4.72Q193.24 4.48 193.01 4.23Q192.78 3.99 192.50 3.98L192.50 3.98Q192.30 3.96 192.21 3.95Q192.12 3.93 192.03 3.86Q191.94 3.78 191.94 3.64ZM194.42 11.47L194.42 11.47Q194.42 11.73 194.42 11.90Q194.43 12.07 194.48 12.21Q194.53 12.35 194.56 12.40Q194.59 12.46 194.73 12.53Q194.87 12.60 194.94 12.62Q195.02 12.64 195.27 12.71Q195.52 12.78 195.69 12.82L195.69 12.82Q196.18 12.96 196.71 12.96L196.71 12.96L196.99 12.96Q197.95 12.96 198.62 12.69Q199.29 12.42 199.91 11.83L199.91 11.83Q200.94 10.84 200.94 8.61L200.94 8.61Q200.94 7.49 200.50 6.58Q200.06 5.67 199.35 5.13Q198.63 4.59 197.81 4.30Q196.98 4.02 196.14 4.02L196.14 4.02Q195.76 4.02 195.59 4.02Q195.41 4.02 195.18 4.05Q194.95 4.09 194.87 4.11Q194.80 4.13 194.68 4.25Q194.57 4.37 194.55 4.45Q194.53 4.54 194.50 4.78Q194.46 5.03 194.46 5.21Q194.46 5.39 194.46 5.80L194.46 5.80Q194.46 6.10 194.45 7.24Q194.43 8.39 194.43 8.48L194.43 8.48Q194.43 9.32 194.42 10.30Q194.42 11.28 194.42 11.47ZM210.03 3.65L210.03 3.65Q210.03 3.46 210.42 3.46L210.42 3.46Q210.48 3.46 210.60 3.47Q210.73 3.49 210.80 3.49L210.80 3.49Q210.84 3.49 212.11 3.52Q213.39 3.56 214.21 3.56L214.21 3.56Q214.51 3.56 215.66 3.53Q216.82 3.50 217.01 3.50L217.01 3.50Q217.28 3.50 217.28 3.82L217.28 3.82Q217.28 3.91 217.20 4.38Q217.11 4.84 217.11 5.25L217.11 5.25Q217.11 5.38 217.04 5.47Q216.97 5.56 216.89 5.56L216.89 5.56Q216.68 5.56 216.68 5.26L216.68 5.26Q216.68 4.89 216.44 4.58Q216.20 4.27 215.85 4.26L215.85 4.26Q214.59 4.16 213.92 4.16L213.92 4.16L213.56 4.16Q212.83 4.16 212.71 4.26Q212.59 4.37 212.56 5.01L212.56 5.01Q212.51 6.02 212.51 7.35L212.51 7.35Q212.51 8.05 212.77 8.06L212.77 8.06L213.12 8.06L213.71 8.06L214.14 8.06Q214.98 8.06 215.26 8.01Q215.54 7.95 215.77 7.80L215.77 7.80Q216.03 7.62 216.09 7.28L216.09 7.28Q216.13 7.04 216.29 7.04L216.29 7.04Q216.41 7.04 216.44 7.08Q216.47 7.13 216.47 7.27L216.47 7.27Q216.47 7.36 216.41 7.91Q216.36 8.46 216.36 8.74L216.36 8.74Q216.36 9.00 216.38 9.24Q216.40 9.48 216.40 9.59L216.40 9.59Q216.40 9.94 216.30 9.94L216.30 9.94Q216.09 9.94 215.99 9.60L215.99 9.60Q215.80 9.02 215.64 8.92L215.64 8.92Q215.35 8.72 214.30 8.72L214.30 8.72Q213.88 8.72 213.62 8.72Q213.36 8.72 213.28 8.71Q213.21 8.71 213.16 8.71Q213.11 8.71 213.07 8.71L213.07 8.71Q212.49 8.71 212.49 8.97L212.49 8.97Q212.49 9.38 212.48 9.99Q212.46 10.60 212.46 10.99L212.46 10.99L212.46 11.55Q212.46 12.56 212.80 12.66L212.80 12.66Q213.15 12.77 213.40 12.77L213.40 12.77Q214.45 12.77 215.24 12.67Q216.03 12.57 216.43 12.42Q216.83 12.28 217.10 12.10Q217.36 11.93 217.44 11.78Q217.52 11.63 217.59 11.54Q217.67 11.44 217.76 11.44L217.76 11.44Q217.92 11.44 217.92 11.68L217.92 11.68Q217.92 12.28 217.32 12.89Q216.72 13.51 216.27 13.51L216.27 13.51Q215.26 13.51 214.00 13.44Q212.73 13.37 212.42 13.37L212.42 13.37Q212.03 13.37 211.44 13.43Q210.85 13.50 210.52 13.50L210.52 13.50Q210.22 13.50 210.22 13.36L210.22 13.36Q210.22 13.23 210.22 13.19Q210.22 13.15 210.27 13.12Q210.31 13.09 210.36 13.08Q210.41 13.08 210.54 13.03Q210.67 12.99 210.83 12.92L210.83 12.92Q211.16 12.75 211.27 12.26Q211.37 11.77 211.37 10.21L211.37 10.21L211.37 8.47Q211.37 8.09 211.39 7.29Q211.41 6.50 211.41 6.05L211.41 6.05Q211.41 5.67 211.39 4.77L211.39 4.77Q211.37 4.37 211.04 4.14Q210.70 3.92 210.25 3.91L210.25 3.91Q210.03 3.91 210.03 3.65Z"></path></g></svg>